<?xml version="1.0" encoding="UTF-8"?>
<svg width="19px" height="20px" viewBox="0 0 19 20" version="1.1" xmlns="http://www.w3.org/2000/svg" xmlns:xlink="http://www.w3.org/1999/xlink">
    <title>launch</title>
    <g id="version-future" stroke="none" stroke-width="1" fill="none" fill-rule="evenodd">
        <g id="Create-Notebook-1-Copy-3" transform="translate(-1119.000000, -237.000000)" fill="#4D72AA" fill-rule="nonzero">
            <g id="Group-12" transform="translate(791.000000, 122.000000)">
                <g id="Group-17" transform="translate(26.000000, 61.000000)">
                    <g id="Group-7" transform="translate(274.000000, 54.000000)">
                        <path d="M43.2148438,0.375 C44.4765625,0.375 45.5032552,0.461588542 46.2949219,0.634765625 C46.5423177,0.684244792 46.6907552,0.832682292 46.7402344,1.08007812 C46.9134115,1.89648438 47,2.92317708 47,4.16015625 C47,5.94140625 46.5794271,7.45052083 45.7382812,8.6875 C44.8971354,9.92447917 43.734375,11.0253906 42.25,11.9902344 L42.25,11.9902344 L42.25,15.8496094 L42.2417535,16.0099013 C42.214265,16.2761954 42.1180556,16.5381944 41.953125,16.7958984 C41.7552083,17.1051432 41.5201823,17.3216146 41.2480469,17.4453125 L41.2480469,17.4453125 L37.6113281,19.2636719 L37.5162354,19.3123779 C37.4188232,19.354126 37.3144531,19.375 37.203125,19.375 C36.9557292,19.375 36.7454427,19.2884115 36.5722656,19.1152344 C36.3990885,18.9420573 36.3125,18.7317708 36.3125,18.484375 L36.3125,18.484375 L36.3125,14.625 L35.4960938,15.4785156 L35.387795,15.5671237 C35.1666534,15.7307079 34.9182478,15.8125 34.6425781,15.8125 C34.3209635,15.8125 34.0364583,15.7011719 33.7890625,15.4785156 L33.7890625,15.4785156 L31.8964844,13.5859375 L31.8078763,13.4776387 C31.6442921,13.2564971 31.5625,13.0080915 31.5625,12.7324219 C31.5625,12.4108073 31.6738281,12.1263021 31.8964844,11.8789062 L31.8964844,11.8789062 L32.75,11.0625 L28.890625,11.0625 L28.7700195,11.0552843 C28.5741645,11.0312319 28.4040799,10.9470486 28.2597656,10.8027344 C28.0865885,10.6295573 28,10.4192708 28,10.171875 C28,10.0234375 28.0371094,9.88736979 28.1113281,9.76367188 L28.1113281,9.76367188 L29.9296875,6.08984375 L29.999783,5.96820747 C30.130353,5.76891638 30.3296441,5.58680556 30.5976562,5.421875 C30.9192708,5.22395833 31.2285156,5.125 31.5253906,5.125 L31.5253906,5.125 L35.3847656,5.125 L35.6044575,4.7827813 C36.4942042,3.43806051 37.5157001,2.3831881 38.6689453,1.61816406 C39.9182943,0.789388021 41.4335938,0.375 43.2148438,0.375 Z M42.25,3.640625 C41.8294271,3.640625 41.476888,3.7828776 41.1923828,4.06738281 C40.9078776,4.35188802 40.765625,4.70442708 40.765625,5.125 C40.765625,5.54557292 40.9016927,5.90429688 41.1738281,6.20117188 C41.4707031,6.47330729 41.8294271,6.609375 42.25,6.609375 C42.6705729,6.609375 43.023112,6.4671224 43.3076172,6.18261719 C43.5921224,5.89811198 43.734375,5.54557292 43.734375,5.125 C43.734375,4.70442708 43.5921224,4.35188802 43.3076172,4.06738281 C43.023112,3.7828776 42.6705729,3.640625 42.25,3.640625 Z" id="launch"></path>
                    </g>
                </g>
            </g>
        </g>
    </g>
</svg>